<?xml version="1.0" standalone="no"?>
<!DOCTYPE svg PUBLIC "-//W3C//DTD SVG 20010904//EN"
 "http://www.w3.org/TR/2001/REC-SVG-20010904/DTD/svg10.dtd">
<svg version="1.0" xmlns="http://www.w3.org/2000/svg"
 width="1200.000000pt" height="630.000000pt" viewBox="0 0 1200.000000 630.000000"
 preserveAspectRatio="xMidYMid meet">

<g transform="translate(0.000000,630.000000) scale(0.100000,-0.100000)"
fill="#000000" stroke="none">
<path d="M0 3150 l0 -3150 6000 0 6000 0 0 3150 0 3150 -6000 0 -6000 0 0
-3150z m5433 1605 c135 -35 315 -143 476 -285 l91 -81 91 81 c168 148 365 263
499 291 86 18 205 7 265 -23 107 -55 182 -174 210 -332 24 -143 16 -308 -26
-504 -11 -52 -18 -96 -15 -99 2 -3 51 -21 108 -40 292 -98 504 -245 581 -402
27 -57 31 -77 31 -146 1 -69 -4 -89 -30 -145 -77 -164 -286 -310 -581 -407
-110 -36 -114 -39 -109 -63 40 -182 50 -265 50 -410 0 -117 -4 -171 -17 -220
-39 -145 -101 -231 -205 -282 -62 -31 -73 -33 -162 -32 -81 1 -108 6 -182 33
-138 52 -282 146 -460 303 l-48 41 -47 -41 c-179 -157 -323 -251 -461 -303
-74 -27 -101 -32 -182 -33 -89 -1 -100 1 -162 32 -104 51 -166 137 -205 282
-13 49 -17 103 -17 220 0 145 10 228 50 410 5 24 1 27 -109 63 -295 97 -504
243 -581 407 -26 56 -31 76 -30 145 0 69 4 89 31 146 77 157 289 304 581 402
57 19 106 37 108 40 3 3 -4 47 -15 99 -42 196 -50 361 -26 504 32 185 128 313
265 355 43 13 173 10 233 -6z"/>
<path d="M5235 4615 c-54 -19 -107 -78 -136 -151 -21 -54 -23 -74 -23 -224 -1
-133 4 -188 23 -282 13 -65 25 -118 27 -118 3 0 64 11 137 24 73 13 178 29
233 36 l102 12 48 66 c27 37 93 120 148 185 l98 118 -23 26 c-38 40 -168 145
-238 193 -111 75 -257 131 -334 130 -12 -1 -40 -7 -62 -15z"/>
<path d="M6615 4616 c-67 -16 -169 -64 -247 -117 -69 -47 -199 -152 -237 -192
l-23 -26 98 -118 c55 -65 121 -148 148 -185 l48 -66 102 -12 c55 -7 160 -23
233 -36 73 -13 134 -24 137 -24 2 0 14 53 27 118 19 94 24 149 23 282 0 150
-2 171 -23 225 -40 101 -124 167 -211 164 -14 0 -48 -6 -75 -13z"/>
<path d="M5896 4055 c-53 -64 -96 -119 -96 -123 0 -4 90 -7 200 -7 110 0 200
3 200 7 0 11 -191 238 -200 238 -4 0 -51 -52 -104 -115z"/>
<path d="M5722 3773 c-42 -4 -45 -6 -103 -96 -64 -97 -189 -315 -234 -407
l-27 -56 50 -99 c61 -122 133 -247 212 -369 l60 -93 160 -7 c88 -4 232 -4 320
0 l160 7 60 93 c79 122 151 247 212 369 l50 99 -27 56 c-45 92 -170 310 -233
406 l-60 91 -62 6 c-65 7 -461 7 -538 0z m403 -278 c112 -49 175 -140 183
-261 6 -94 -15 -157 -75 -224 -25 -28 -69 -63 -97 -78 -44 -23 -63 -27 -136
-27 -73 0 -92 4 -136 27 -67 35 -138 115 -160 180 -25 75 -16 179 21 247 79
145 250 203 400 136z"/>
<path d="M5311 3724 c-74 -13 -137 -26 -139 -29 -8 -8 95 -295 107 -295 4 0
23 30 43 68 20 37 66 115 101 175 75 125 86 117 -112 81z"/>
<path d="M6577 3643 c35 -60 81 -138 101 -175 20 -38 39 -68 43 -68 11 0 116
287 107 295 -4 5 -284 55 -304 55 -7 0 17 -48 53 -107z"/>
<path d="M4895 3616 c-255 -89 -430 -209 -480 -330 -55 -132 52 -279 290 -398
75 -38 241 -102 290 -112 l30 -6 28 87 c16 49 53 147 83 219 30 72 54 134 54
137 0 4 -22 60 -49 125 -27 64 -64 160 -82 212 -18 52 -35 98 -38 102 -3 3
-60 -13 -126 -36z"/>
<path d="M6975 3647 c-23 -70 -110 -298 -135 -358 l-33 -76 56 -134 c30 -74
68 -173 84 -222 l28 -87 30 6 c92 19 315 116 405 177 284 189 245 398 -106
580 -115 59 -323 131 -329 114z"/>
<path d="M5243 2947 c-61 -154 -77 -209 -63 -217 25 -16 300 -58 300 -46 0 2
-29 53 -65 112 -36 60 -80 137 -98 171 -17 35 -34 63 -37 63 -3 0 -20 -37 -37
-83z"/>
<path d="M6683 2967 c-18 -34 -62 -111 -98 -171 -36 -59 -65 -110 -65 -112 0
-12 275 30 300 46 10 6 7 23 -9 71 -31 94 -85 229 -91 229 -3 0 -20 -28 -37
-63z"/>
<path d="M5126 2581 c-8 -12 -35 -157 -47 -246 -14 -109 -7 -291 15 -361 84
-270 361 -224 756 125 52 46 55 34 -43 147 -37 43 -100 120 -138 172 -39 51
-76 95 -83 97 -6 1 -59 8 -118 15 -58 6 -159 22 -223 34 -63 13 -117 20 -119
17z"/>
<path d="M6805 2574 c-92 -20 -319 -54 -359 -54 -29 0 -40 -7 -63 -36 -102
-133 -225 -283 -247 -303 -14 -14 -26 -30 -26 -36 0 -15 158 -150 244 -209
361 -247 576 -155 576 246 0 122 -40 392 -59 402 -3 1 -33 -3 -66 -10z"/>
<path d="M5800 2494 c0 -9 93 -124 153 -189 l45 -50 27 25 c32 30 175 204 175
213 0 4 -90 7 -200 7 -110 0 -200 -3 -200 -6z"/>
</g>
</svg>
